# Blender v2.82 (sub 7) OBJ File: ''
# www.blender.org
mtllib BrazoDerecho.mtl
o Finn.001
v -6.712243 27.997513 5.085155
v -6.804343 27.924343 4.766029
v -6.601881 28.161015 4.686277
v -6.486939 28.250267 4.916041
v -6.521709 28.198784 6.044039
v -6.237164 28.493935 5.939669
v -6.223128 28.511106 6.271957
v -6.386197 28.309809 6.530561
v -7.152111 27.718884 5.221448
v -7.181799 27.693499 4.953495
v -6.724217 28.110195 6.492815
v -6.886519 27.982143 6.191310
v -11.106463 55.130848 -0.762723
v -11.052467 55.653919 0.293221
v -9.750863 56.020882 -0.153014
v -9.892813 55.437634 -1.170844
v -10.788253 54.367134 -1.058336
v -9.786384 54.571178 -1.384170
v -10.282658 53.754425 -0.683216
v -9.492521 53.855541 -0.926733
v -9.855146 53.653316 0.408799
v -9.169044 53.721333 0.201797
v -8.904020 54.329433 1.179542
v -9.694157 54.228313 1.423059
v -8.931024 55.259956 1.677210
v -9.932894 55.055912 2.003044
v -9.304313 55.911522 0.935432
v -10.517963 55.604736 1.343553
v -12.150267 54.419338 -0.310998
v -12.981761 52.240517 0.411536
v -13.050929 52.637699 1.530215
v -12.184225 54.882229 0.783060
v -11.620416 53.758530 -0.688898
v -12.351639 51.710323 -0.023767
v -10.903039 53.248558 -0.396065
v -11.534015 51.331066 0.211647
v -10.371426 53.180664 0.659392
v -10.946750 51.315987 1.239671
v -10.314539 53.722450 1.710210
v -10.945515 51.804955 2.317923
v -10.765056 54.447308 2.372482
v -11.496279 52.399101 3.037613
v -11.561767 54.893227 1.795278
v -12.393354 52.714386 2.517842
v -13.478043 50.260933 0.995583
v -13.582539 50.592491 2.138898
v -12.747673 49.861458 0.502862
v -11.829803 49.612907 0.680858
v -11.186791 49.650669 1.681418
v -11.241302 50.086800 2.787134
v -11.892313 50.550236 3.564242
v -12.889542 50.734825 3.101859
v -13.697527 45.674885 2.088721
v -13.812945 45.875000 3.264660
v -12.894972 45.555054 1.512913
v -11.905009 45.586128 1.607854
v -11.207490 45.746029 2.565704
v -11.316508 46.060020 3.714129
v -12.039612 46.243828 4.574293
v -13.109026 46.148773 4.194996
v -13.569942 42.071178 2.863869
v -13.672146 42.209358 4.050050
v -12.772612 42.088783 2.258599
v -11.787872 42.257301 2.324077
v -11.082035 42.479774 3.265525
v -11.199278 42.731209 4.430322
v -11.917252 42.777565 5.319979
v -12.981441 42.545067 4.970144
v -12.695663 37.902569 3.557486
v -12.776329 37.987053 4.749730
v -11.925097 38.042252 2.932228
v -10.967193 38.332741 2.977762
v -10.264002 38.612228 3.907121
v -10.378693 38.806625 5.084037
v -11.069737 38.731030 5.993608
v -12.107162 38.376457 5.663762
v -10.496189 30.984442 4.713736
v -10.532796 31.037830 5.692331
v -9.820399 31.187763 4.055382
v -8.938841 31.540216 4.111280
v -8.371484 31.802870 4.916327
v -8.465718 31.943178 5.976142
v -9.054010 31.804897 6.798331
v -9.952699 31.416843 6.510029
v -10.082575 30.052643 5.782245
v -10.081531 30.017969 4.789933
v -9.676321 28.911350 5.191400
v -9.581109 29.023775 6.147185
v -9.343678 30.332212 3.945648
v -8.742430 29.224840 3.638179
v -9.605820 28.908371 4.418388
v -8.333779 30.828363 4.024829
v -7.647331 29.727722 3.686834
v -7.463181 29.826878 4.164033
v -7.866130 31.253876 6.081307
v -6.919970 30.313429 6.290100
v -7.123909 30.120594 5.213863
v -7.770486 31.135143 4.892688
v -6.194459 31.412632 6.970789
v -6.334405 31.373621 7.419935
v -6.268340 30.848665 7.437887
v -6.107626 30.878271 6.887633
v -8.488319 31.020990 7.007028
v -9.456889 30.509125 6.693332
v -8.878459 29.494078 7.021654
v -7.685276 30.076113 7.421795
v -8.181183 29.600449 5.532062
v -6.834708 29.306423 5.744704
v -7.549231 28.871080 5.828749
v -6.892466 29.306019 6.364055
v -7.210153 29.146488 7.044131
v -7.802944 28.765596 6.740034
v -8.182987 28.500772 6.201859
v -6.683213 28.154099 4.077901
v -6.953771 27.830568 4.246471
v -7.020657 27.771027 3.943902
v -6.692263 28.113085 3.886421
v -7.412697 27.529669 4.218975
v -7.413372 27.531513 4.421985
v -8.088285 28.414879 3.747918
v -8.701543 28.070072 4.371655
v -7.289554 28.909096 3.788370
v -7.318256 28.970449 4.133708
v -8.461807 29.412643 4.585121
v -7.869440 28.588449 4.503162
v -8.767540 28.047960 4.746192
v -7.513062 28.841793 5.558678
v -7.009757 29.136131 5.195764
v -8.360163 28.327644 5.754972
v -8.429510 28.248011 5.026065
v -7.773350 28.634529 4.649635
v -7.331380 28.905828 4.571241
v -7.540065 31.326361 7.416311
v -7.331166 31.384605 6.745543
v -7.441368 30.542244 7.443084
v -7.201417 30.586615 6.621318
vt 0.725300 0.579100
vt 0.729800 0.588400
vt 0.724100 0.588800
vt 0.721000 0.584100
vt 0.710300 0.549600
vt 0.705400 0.551000
vt 0.703000 0.546800
vt 0.703900 0.542000
vt 0.662000 0.807100
vt 0.665100 0.810700
vt 0.664100 0.813900
vt 0.660700 0.816000
vt 0.681800 0.770700
vt 0.679700 0.775400
vt 0.676000 0.775800
vt 0.681600 0.766600
vt 0.461200 0.575300
vt 0.472600 0.579200
vt 0.472200 0.589700
vt 0.458000 0.584100
vt 0.453900 0.567200
vt 0.449500 0.573400
vt 0.446900 0.558000
vt 0.443200 0.563100
vt 0.436400 0.549500
vt 0.433800 0.554000
vt 0.505800 0.566000
vt 0.502800 0.560300
vt 0.514000 0.553700
vt 0.516200 0.558600
vt 0.497200 0.576100
vt 0.493600 0.569000
vt 0.486600 0.586100
vt 0.484200 0.576700
vt 0.462400 0.564100
vt 0.462400 0.533400
vt 0.473800 0.536200
vt 0.473000 0.567200
vt 0.455700 0.556800
vt 0.456000 0.526800
vt 0.448800 0.548700
vt 0.449900 0.519800
vt 0.437600 0.542500
vt 0.438600 0.515100
vt 0.513400 0.546600
vt 0.501800 0.551000
vt 0.503100 0.522200
vt 0.514700 0.519100
vt 0.492500 0.558400
vt 0.494300 0.528500
vt 0.483600 0.565200
vt 0.485500 0.534500
vt 0.463600 0.505500
vt 0.475100 0.507800
vt 0.457100 0.499800
vt 0.450700 0.494000
vt 0.439400 0.490100
vt 0.504300 0.496300
vt 0.516000 0.493700
vt 0.495500 0.501500
vt 0.486600 0.506600
vt 0.465500 0.438700
vt 0.477100 0.439200
vt 0.458800 0.436400
vt 0.452200 0.434000
vt 0.440700 0.431700
vt 0.506200 0.436000
vt 0.517800 0.434600
vt 0.497400 0.437800
vt 0.488600 0.439600
vt 0.466600 0.385700
vt 0.478100 0.385400
vt 0.459900 0.384900
vt 0.453200 0.384100
vt 0.441700 0.382500
vt 0.506700 0.385700
vt 0.518100 0.384800
vt 0.498200 0.386100
vt 0.489700 0.386400
vt 0.467000 0.322300
vt 0.478200 0.321300
vt 0.460600 0.323000
vt 0.454300 0.323700
vt 0.442900 0.323100
vt 0.506000 0.325200
vt 0.517800 0.324800
vt 0.497500 0.324100
vt 0.489300 0.322900
vt 0.467800 0.213800
vt 0.478200 0.212700
vt 0.460300 0.215700
vt 0.453100 0.217500
vt 0.442800 0.217500
vt 0.507400 0.218800
vt 0.517800 0.219000
vt 0.498700 0.216700
vt 0.489600 0.214600
vt 0.726900 0.818500
vt 0.726100 0.835200
vt 0.707200 0.827700
vt 0.710200 0.810700
vt 0.728100 0.849600
vt 0.704900 0.853600
vt 0.704400 0.839800
vt 0.667800 0.646000
vt 0.698100 0.633200
vt 0.703200 0.651500
vt 0.679500 0.660700
vt 0.688200 0.618000
vt 0.638500 0.600200
vt 0.663800 0.572700
vt 0.677100 0.584700
vt 0.653200 0.625000
vt 0.631500 0.548400
vt 0.626400 0.541000
vt 0.642100 0.535500
vt 0.642400 0.546300
vt 0.736900 0.785000
vt 0.732000 0.799300
vt 0.711300 0.792400
vt 0.715600 0.775000
vt 0.689900 0.579600
vt 0.694000 0.564100
vt 0.699200 0.569000
vt 0.688100 0.556200
vt 0.666100 0.552200
vt 0.683700 0.546600
vt 0.698600 0.778000
vt 0.703800 0.768500
vt 0.692600 0.787700
vt 0.702300 0.807000
vt 0.686700 0.794600
vt 0.742800 0.620300
vt 0.749500 0.616000
vt 0.751400 0.626000
vt 0.743600 0.623500
vt 0.670600 0.849400
vt 0.668200 0.853600
vt 0.666100 0.845300
vt 0.670500 0.847400
vt 0.690800 0.856900
vt 0.688300 0.846200
vt 0.720400 0.629500
vt 0.728500 0.643400
vt 0.718800 0.621500
vt 0.701800 0.614900
vt 0.722800 0.611800
vt 0.700600 0.827800
vt 0.686800 0.841300
vt 0.682500 0.830800
vt 0.705000 0.579300
vt 0.701500 0.588000
vt 0.683100 0.808900
vt 0.682900 0.801900
vt 0.680700 0.820100
vt 0.679600 0.826700
vt 0.706500 0.601400
vt 0.712700 0.608000
vt 0.620900 0.587300
vt 0.619200 0.558700
vt 0.631100 0.568000
vt 0.723200 0.771300
vt 0.737900 0.770400
vt 0.653000 0.567200
vt 0.659400 0.555000
vt 0.724000 0.758100
vt 0.733800 0.757500
vt 0.746600 0.821300
vt 0.745400 0.837500
vt 0.745600 0.848800
vt 0.656600 0.670600
vt 0.648500 0.657300
vt 0.636300 0.636800
vt 0.622600 0.618000
vt 0.609400 0.607200
vt 0.753700 0.790900
vt 0.750600 0.803900
vn 0.8101 -0.3647 0.4591
vn 0.4557 -0.5905 -0.6660
vn 0.6784 -0.1347 -0.7223
vn 0.9938 0.0676 0.0885
vn 0.4901 -0.6089 -0.6237
vn 0.7746 -0.1049 -0.6237
vn 0.9845 0.1225 0.1256
vn 0.7244 -0.3592 0.5884
vn 0.1682 -0.8224 0.5435
vn -0.0516 -0.9310 -0.3614
vn 0.0980 -0.8358 0.5402
vn -0.0935 -0.9670 -0.2369
vn -0.5896 0.4977 -0.6361
vn -0.5629 0.8260 -0.0285
vn -0.8563 0.4776 0.1966
vn -0.9117 0.2130 -0.3514
vn -0.3198 -0.1450 -0.9363
vn -0.7132 -0.3371 -0.6146
vn 0.1405 -0.7288 -0.6702
vn -0.6429 -0.7255 -0.2457
vn 0.5308 -0.8465 0.0421
vn -0.5943 -0.7541 0.2795
vn -0.3729 -0.5730 0.7298
vn 0.5621 -0.5350 0.6307
vn -0.3900 0.1366 0.9106
vn 0.1704 0.3125 0.9345
vn -0.6047 0.5552 0.5711
vn -0.3077 0.8113 0.4971
vn -0.8668 0.2152 -0.4498
vn -0.9381 -0.0160 -0.3460
vn -0.9618 0.1347 0.2384
vn -0.8806 0.4513 0.1445
vn -0.3668 -0.2128 -0.9056
vn -0.2761 -0.2144 -0.9369
vn 0.5430 -0.4039 -0.7362
vn 0.6471 -0.1936 -0.7374
vn 0.9323 -0.3068 -0.1914
vn 0.9647 -0.0748 -0.2527
vn 0.9276 -0.1944 0.3191
vn 0.9830 0.0107 0.1831
vn 0.1146 0.2016 0.9727
vn 0.2460 0.2082 0.9466
vn -0.6344 0.4838 0.6029
vn -0.7415 0.2108 0.6369
vn -0.9418 -0.0954 -0.3223
vn -0.9646 0.0370 0.2611
vn -0.2825 -0.2190 -0.9339
vn 0.6462 -0.1135 -0.7546
vn 0.9626 0.0153 -0.2706
vn 0.9818 0.0944 0.1650
vn 0.2401 0.2033 0.9492
vn -0.7466 0.1230 0.6538
vn -0.9353 -0.1620 -0.3145
vn -0.9588 -0.0503 0.2794
vn -0.2702 -0.2131 -0.9389
vn 0.6295 -0.0754 -0.7733
vn 0.9579 0.0624 -0.2803
vn 0.9740 0.1490 0.1706
vn 0.2548 0.2110 0.9437
vn -0.7391 0.0492 0.6718
vn -0.9297 -0.2189 -0.2964
vn -0.9483 -0.1222 0.2930
vn -0.2784 -0.2154 -0.9360
vn 0.6194 -0.0253 -0.7847
vn 0.9483 0.1236 -0.2922
vn 0.9657 0.2027 0.1622
vn 0.2409 0.2066 0.9483
vn -0.7339 -0.0131 0.6792
vn -0.9145 -0.2841 -0.2881
vn -0.9318 -0.1968 0.3049
vn -0.2671 -0.2229 -0.9375
vn 0.6116 0.0246 -0.7908
vn 0.9349 0.1858 -0.3025
vn 0.9543 0.2579 0.1509
vn 0.2552 0.1995 0.9461
vn -0.7184 -0.0823 0.6907
vn -0.9219 -0.3152 -0.2251
vn -0.9127 -0.2545 0.3197
vn -0.3421 -0.1637 -0.9253
vn 0.5787 0.1693 -0.7978
vn 0.8876 0.3395 -0.3113
vn 0.9084 0.3969 0.1313
vn 0.1867 0.2784 0.9421
vn -0.7139 -0.1281 0.6884
vn -0.9104 -0.2623 0.3198
vn -0.9392 -0.2925 -0.1799
vn -0.8273 -0.5422 0.1469
vn -0.7328 -0.5377 0.4170
vn -0.4114 -0.0420 -0.9105
vn -0.3228 -0.1318 -0.9373
vn -0.8700 -0.3821 -0.3116
vn 0.5401 0.3266 -0.7757
vn 0.5993 0.2377 -0.7645
vn 0.9130 0.2098 -0.3500
vn 0.7859 0.6176 -0.0306
vn 0.9599 0.2803 0.0046
vn 0.9460 0.1746 -0.2730
vn 0.8424 0.4306 -0.3239
vn 0.6638 0.6647 -0.3428
vn 0.4599 0.5777 0.6743
vn 0.6040 -0.4348 0.6680
vn 0.8120 -0.3998 -0.4253
vn -0.4236 0.4221 0.8015
vn -0.7157 -0.1146 0.6889
vn -0.5981 -0.3034 0.7418
vn 0.2452 -0.0888 0.9654
vn 0.6094 -0.7501 0.2571
vn 0.7516 0.0803 -0.6547
vn -0.0018 -0.3790 -0.9254
vn 0.9512 0.2995 0.0738
vn 0.4030 -0.1368 0.9049
vn -0.4822 -0.5248 0.7015
vn -0.5527 -0.8105 -0.1939
vn 0.9148 0.1353 0.3805
vn 0.7900 -0.3027 0.5332
vn 0.3981 -0.6306 -0.6663
vn 0.8077 -0.0762 -0.5847
vn -0.0201 -0.9357 -0.3523
vn 0.1842 -0.7756 0.6038
vn -0.1838 -0.3581 -0.9154
vn -0.6852 -0.6475 -0.3335
vn 0.7119 0.2118 -0.6696
vn 0.8805 0.2933 0.3724
vn 0.5163 -0.8537 0.0676
vn 0.3592 0.1253 0.9248
vn -0.4554 -0.5257 0.7185
vn 0.3854 0.0722 0.9199
vn 0.9531 0.1960 0.2305
vn -0.2716 -0.5027 0.8207
vn -0.5961 -0.6844 -0.4197
vn -0.1385 -0.2807 -0.9498
vn 0.4997 -0.0012 -0.8662
vn -0.3530 0.6521 0.6709
vn 0.2480 0.8886 -0.3859
vn 0.0272 -0.4600 0.8875
vn 0.9721 0.0875 -0.2178
usemtl default.001
s 1
f 1/1/1 2/2/2 3/3/3 4/4/4
f 5/5/5 6/6/6 7/7/7 8/8/8
f 1/9/1 9/10/9 10/11/10 2/12/2
f 11/13/11 12/14/12 5/15/5 8/16/8
f 13/17/13 14/18/14 15/19/15 16/20/16
f 17/21/17 13/17/13 16/20/16 18/22/18
f 19/23/19 17/21/17 18/22/18 20/24/20
f 21/25/21 19/23/19 20/24/20 22/26/22
f 23/27/23 24/28/24 21/29/21 22/30/22
f 25/31/25 26/32/26 24/28/24 23/27/23
f 27/33/27 28/34/28 26/32/26 25/31/25
f 15/19/15 14/18/14 28/34/28 27/33/27
f 29/35/29 30/36/30 31/37/31 32/38/32
f 33/39/33 34/40/34 30/36/30 29/35/29
f 35/41/35 36/42/36 34/40/34 33/39/33
f 37/43/37 38/44/38 36/42/36 35/41/35
f 37/45/37 39/46/39 40/47/40 38/48/38
f 39/46/39 41/49/41 42/50/42 40/47/40
f 41/49/41 43/51/43 44/52/44 42/50/42
f 43/51/43 32/38/32 31/37/31 44/52/44
f 29/35/29 32/38/32 14/18/14 13/17/13
f 33/39/33 29/35/29 13/17/13 17/21/17
f 35/41/35 33/39/33 17/21/17 19/23/19
f 21/25/21 37/43/37 35/41/35 19/23/19
f 39/46/39 37/45/37 21/29/21 24/28/24
f 39/46/39 24/28/24 26/32/26 41/49/41
f 41/49/41 26/32/26 28/34/28 43/51/43
f 43/51/43 28/34/28 14/18/14 32/38/32
f 31/37/31 30/36/30 45/53/45 46/54/46
f 34/40/34 47/55/47 45/53/45 30/36/30
f 36/42/36 48/56/48 47/55/47 34/40/34
f 38/44/38 49/57/49 48/56/48 36/42/36
f 50/58/50 49/59/49 38/48/38 40/47/40
f 51/60/51 50/58/50 40/47/40 42/50/42
f 52/61/52 51/60/51 42/50/42 44/52/44
f 31/37/31 46/54/46 52/61/52 44/52/44
f 46/54/46 45/53/45 53/62/53 54/63/54
f 47/55/47 55/64/55 53/62/53 45/53/45
f 48/56/48 56/65/56 55/64/55 47/55/47
f 49/57/49 57/66/57 56/65/56 48/56/48
f 49/59/49 50/58/50 58/67/58 57/68/57
f 50/58/50 51/60/51 59/69/59 58/67/58
f 51/60/51 52/61/52 60/70/60 59/69/59
f 46/54/46 54/63/54 60/70/60 52/61/52
f 54/63/54 53/62/53 61/71/61 62/72/62
f 53/62/53 55/64/55 63/73/63 61/71/61
f 55/64/55 56/65/56 64/74/64 63/73/63
f 57/66/57 65/75/65 64/74/64 56/65/56
f 57/68/57 58/67/58 66/76/66 65/77/65
f 59/69/59 67/78/67 66/76/66 58/67/58
f 60/70/60 68/79/68 67/78/67 59/69/59
f 54/63/54 62/72/62 68/79/68 60/70/60
f 62/72/62 61/71/61 69/80/69 70/81/70
f 61/71/61 63/73/63 71/82/71 69/80/69
f 63/73/63 64/74/64 72/83/72 71/82/71
f 65/75/65 73/84/73 72/83/72 64/74/64
f 65/77/65 66/76/66 74/85/74 73/86/73
f 67/78/67 75/87/75 74/85/74 66/76/66
f 68/79/68 76/88/76 75/87/75 67/78/67
f 62/72/62 70/81/70 76/88/76 68/79/68
f 70/81/70 69/80/69 77/89/77 78/90/78
f 69/80/69 71/82/71 79/91/79 77/89/77
f 71/82/71 72/83/72 80/92/80 79/91/79
f 73/84/73 81/93/81 80/92/80 72/83/72
f 73/86/73 74/85/74 82/94/82 81/95/81
f 75/87/75 83/96/83 82/94/82 74/85/74
f 76/88/76 84/97/84 83/96/83 75/87/75
f 70/81/70 78/90/78 84/97/84 76/88/76
f 85/98/85 86/99/86 87/100/87 88/101/88
f 89/102/89 90/103/90 91/104/91 86/99/86
f 92/105/92 93/106/93 90/107/90 89/108/89
f 92/105/92 94/109/94 93/106/93
f 95/110/95 96/111/96 97/112/97 98/113/98
f 99/114/99 100/115/100 101/116/101 102/117/102
f 103/118/103 104/119/104 105/120/105 106/121/106
f 104/119/104 85/98/85 88/101/88 105/120/105
f 107/122/107 97/112/97 108/123/108 109/124/109
f 96/111/96 110/125/110 108/123/108 97/112/97
f 96/111/96 106/126/106 111/127/111 110/125/110
f 106/121/106 105/120/105 112/128/112 111/129/111
f 105/120/105 88/101/88 113/130/113 112/128/112
f 107/131/107 109/132/109 113/130/113 88/101/88
f 114/133/114 115/134/115 116/135/116 117/136/117
f 118/137/118 116/138/116 115/139/115 119/140/119
f 90/103/90 120/141/120 121/142/121 91/104/91
f 93/106/93 122/143/122 120/144/120 90/107/90
f 93/106/93 94/109/94 123/145/123 122/143/122
f 124/146/124 125/147/125 123/145/123 94/109/94
f 124/148/124 87/100/87 126/149/126 125/150/125
f 91/104/91 121/142/121 126/149/126 87/100/87
f 107/122/107 127/151/127 128/152/128 97/112/97
f 107/131/107 88/101/88 129/153/129 127/154/127
f 87/100/87 130/155/130 129/153/129 88/101/88
f 124/148/124 131/156/131 130/155/130 87/100/87
f 124/146/124 94/109/94 132/157/132 131/158/131
f 94/109/94 97/112/97 128/152/128 132/157/132
f 128/152/128 127/151/127 1/1/1 4/4/4
f 127/154/127 129/153/129 9/10/9 1/9/1
f 130/155/130 10/11/10 9/10/9 129/153/129
f 131/156/131 2/12/2 10/11/10 130/155/130
f 132/157/132 3/3/3 2/2/2 131/158/131
f 132/157/132 128/152/128 4/4/4 3/3/3
f 108/123/108 6/6/6 5/5/5 109/124/109
f 110/125/110 7/7/7 6/6/6 108/123/108
f 110/125/110 111/127/111 8/8/8 7/7/7
f 111/129/111 112/128/112 11/13/11 8/16/8
f 112/128/112 113/130/113 12/14/12 11/13/11
f 109/132/109 5/15/5 12/14/12 113/130/113
f 120/141/120 116/138/116 118/137/118 121/142/121
f 122/143/122 117/136/117 116/135/116 120/144/120
f 122/143/122 123/145/123 114/133/114 117/136/117
f 123/145/123 125/147/125 115/134/115 114/133/114
f 125/150/125 126/149/126 119/140/119 115/139/115
f 121/142/121 118/137/118 119/140/119 126/149/126
f 103/159/103 133/160/133 134/161/134 95/110/95
f 103/118/103 106/121/106 135/162/135 133/163/133
f 106/126/106 96/111/96 136/164/136 135/165/135
f 136/164/136 96/111/96 95/110/95 134/161/134
f 134/161/134 133/160/133 100/115/100 99/114/99
f 133/163/133 135/162/135 101/166/101 100/167/100
f 136/164/136 102/117/102 101/116/101 135/165/135
f 134/161/134 99/114/99 102/117/102 136/164/136
f 98/113/98 97/112/97 94/109/94 92/105/92
f 86/99/86 91/104/91 87/100/87
f 86/99/86 85/98/85 78/168/78 77/169/77
f 86/99/86 77/169/77 79/170/79 89/102/89
f 89/108/89 79/171/79 80/172/80 92/105/92
f 92/105/92 80/172/80 81/173/81 98/113/98
f 95/110/95 98/113/98 81/173/81 82/174/82
f 103/159/103 95/110/95 82/174/82 83/175/83
f 104/119/104 103/118/103 83/176/83 84/177/84
f 85/98/85 104/119/104 84/177/84 78/168/78
